<?xml version="1.0" encoding="UTF-8" standalone="no"?>
<!-- Created with Inkscape (http://www.inkscape.org/) -->

<svg
   xmlns:dc="http://purl.org/dc/elements/1.1/"
   xmlns:cc="http://creativecommons.org/ns#"
   xmlns:rdf="http://www.w3.org/1999/02/22-rdf-syntax-ns#"
   xmlns:svg="http://www.w3.org/2000/svg"
   xmlns="http://www.w3.org/2000/svg"
   xmlns:sodipodi="http://sodipodi.sourceforge.net/DTD/sodipodi-0.dtd"
   xmlns:inkscape="http://www.inkscape.org/namespaces/inkscape"
   width="744.09448819"
   height="1052.3622047"
   id="svg2"
   version="1.1"
   inkscape:version="0.48.4 r9939"
   sodipodi:docname="sitting-pony.svg">
  <defs
     id="defs4" />
  <sodipodi:namedview
     id="base"
     pagecolor="#ffffff"
     bordercolor="#666666"
     borderopacity="1.0"
     inkscape:pageopacity="0.0"
     inkscape:pageshadow="2"
     inkscape:zoom="0.98994948"
     inkscape:cx="455.37792"
     inkscape:cy="469.38906"
     inkscape:document-units="px"
     inkscape:current-layer="layer1"
     showgrid="false"
     inkscape:window-width="1920"
     inkscape:window-height="1030"
     inkscape:window-x="0"
     inkscape:window-y="0"
     inkscape:window-maximized="1"
     showguides="true"
     inkscape:guide-bbox="true" />
  <metadata
     id="metadata7">
    <rdf:RDF>
      <cc:Work
         rdf:about="">
        <dc:format>image/svg+xml</dc:format>
        <dc:type
           rdf:resource="http://purl.org/dc/dcmitype/StillImage" />
        <dc:title />
      </cc:Work>
    </rdf:RDF>
  </metadata>
  <g
     inkscape:label="Layer 1"
     inkscape:groupmode="layer"
     id="layer1">
    <path
       style="fill:none;stroke:#000000;stroke-width:5;stroke-linecap:round;stroke-linejoin:round;stroke-miterlimit:4;stroke-opacity:1;stroke-dasharray:none"
       d="M 417.19295,524.55748 C 381.72609,523.55064 266.79461,480.15791 268.89833,350.26284 269.86245,290.73305 255.13913,139.51285 322.49118,101.30356 366.5707,84.444809 390.46381,227.87639 391.4341,230.09801"
       id="path3001"
       inkscape:connector-curvature="0"
       sodipodi:nodetypes="cscc" />
    <path
       style="fill:none;stroke:#000000;stroke-width:5;stroke-linecap:round;stroke-linejoin:round;stroke-miterlimit:4;stroke-opacity:1;stroke-dasharray:none"
       d="m 519.21837,96.252798 c 2.91954,-7.832604 15.47001,-23.591265 29.84339,-19.230127 40.47228,12.280006 63.75762,160.961909 64.4839,280.944229 0.71446,118.02907 -109.81439,156.04774 -142.03899,165.42199"
       id="path3790"
       inkscape:connector-curvature="0"
       sodipodi:nodetypes="cssc" />
    <path
       style="fill:none;stroke:#000000;stroke-width:5;stroke-linecap:round;stroke-linejoin:round;stroke-miterlimit:4;stroke-opacity:1;stroke-dasharray:none"
       d="m 382.12301,185.02368 c 96.25721,35.77267 74.29825,121.40596 62.21785,131.44238 107.1637,-46.31332 107.47729,-157.32191 88.697,-193.08705 C 502.08854,64.439203 467.25785,47.624314 425.96296,40.256069 347.9212,26.331081 253.13312,68.239043 221.16462,162.16754 c -21.15846,62.1669 -3.08631,173.41897 18.01714,225.04139 37.14736,90.86841 99.04525,126.90185 153.76752,143.40948"
       id="path3796"
       inkscape:connector-curvature="0"
       sodipodi:nodetypes="ccssssc" />
    <path
       style="fill:none;stroke:#000000;stroke-width:5;stroke-linecap:round;stroke-linejoin:round;stroke-miterlimit:4;stroke-opacity:1;stroke-dasharray:none"
       d="m 305.57114,151.8112 c -22.94401,31.94284 -10.01291,72.25447 -2.52539,83.33758"
       id="path3800"
       inkscape:connector-curvature="0"
       sodipodi:nodetypes="cc" />
    <path
       style="fill:none;stroke:#000000;stroke-width:5;stroke-linecap:round;stroke-linejoin:round;stroke-miterlimit:4;stroke-opacity:1;stroke-dasharray:none"
       d="m 541.80206,113.16495 c 11.0061,5.94728 27.9874,42.64396 24.2436,66.16499"
       id="path3800-5"
       inkscape:connector-curvature="0"
       sodipodi:nodetypes="cc" />
    <path
       style="fill:none;stroke:#000000;stroke-width:5;stroke-linecap:round;stroke-linejoin:round;stroke-miterlimit:4;stroke-opacity:1;stroke-dasharray:none"
       d="m 466.54566,379.34013 c -28.7093,-8.01468 -53.4619,6.00864 -58.5888,20.20305"
       id="path3800-56"
       inkscape:connector-curvature="0"
       sodipodi:nodetypes="cc" />
    <path
       style="fill:none;stroke:#000000;stroke-width:5;stroke-linecap:round;stroke-linejoin:round;stroke-miterlimit:4;stroke-opacity:1;stroke-dasharray:none"
       d="m 419.58996,424.93423 c -9.3814,-8.01468 -19.2046,5.25103 -15.9098,12.12183"
       id="path3800-56-9"
       inkscape:connector-curvature="0"
       sodipodi:nodetypes="cc" />
    <path
       style="fill:none;stroke:#000000;stroke-width:5;stroke-linecap:round;stroke-linejoin:round;stroke-miterlimit:4;stroke-opacity:1;stroke-dasharray:none"
       d="m 465.62676,415.95062 c -9.3814,-8.01468 -19.4571,1.21041 -16.1623,8.08121"
       id="path3800-56-9-9"
       inkscape:connector-curvature="0"
       sodipodi:nodetypes="cc" />
    <path
       style="fill:none;stroke:#000000;stroke-width:5;stroke-linecap:round;stroke-linejoin:round;stroke-miterlimit:4;stroke-opacity:1;stroke-dasharray:none"
       d="m 464.48416,481.15986 c 2.0729,-1.67079 -36.3293,3.28042 -38.3857,6.0609"
       id="path3800-56-9-9-9"
       inkscape:connector-curvature="0"
       sodipodi:nodetypes="cc" />
    <path
       style="fill:none;stroke:#000000;stroke-width:5;stroke-linecap:round;stroke-linejoin:round;stroke-miterlimit:4;stroke-opacity:1;stroke-dasharray:none"
       d="m 388.4036,379.85313 c 0.93436,42.24998 -16.52977,57.32617 -40.6586,57.32617 -24.12882,0 -44.65054,-27.19862 -43.68909,-69.44799 0.91983,-40.42065 12.50966,-62.60888 33.58756,-68.94292 23.19016,-6.96879 49.65437,31.0641 50.76013,81.06474 z"
       id="path3147"
       inkscape:connector-curvature="0"
       sodipodi:nodetypes="sssss" />
    <path
       style="fill:none;stroke:#000000;stroke-width:5;stroke-linecap:round;stroke-linejoin:round;stroke-miterlimit:4;stroke-opacity:1;stroke-dasharray:none"
       d="m 567.95666,350.97139 c 2.2151,42.20221 -19.5603,65.40739 -43.6891,65.40739 -24.1288,0 -40.61,-28.71385 -39.6485,-70.96322 0.9198,-40.42065 14.7936,-72.6634 36.618,-75.50892 20.6222,-2.68878 44.2172,33.39165 46.7196,81.06475 z"
       id="path3147-8"
       inkscape:connector-curvature="0"
       sodipodi:nodetypes="sssss" />
    <path
       style="fill:none;stroke:#000000;stroke-width:5;stroke-linecap:round;stroke-linejoin:round;stroke-miterlimit:4;stroke-opacity:1;stroke-dasharray:none"
       d="m 379.39851,337.96196 c -40.47297,15.80354 -31.33753,85.23205 -21.80309,95.56019"
       id="path3800-56-0"
       inkscape:connector-curvature="0"
       sodipodi:nodetypes="cc" />
    <path
       style="fill:none;stroke:#000000;stroke-width:5;stroke-linecap:round;stroke-linejoin:round;stroke-miterlimit:4;stroke-opacity:1;stroke-dasharray:none"
       d="m 561.60106,322.61073 c -45.4475,-2.56557 -38.25673,65.75656 -26.80313,90.91734"
       id="path3800-56-0-6"
       inkscape:connector-curvature="0"
       sodipodi:nodetypes="cc" />
    <path
       style="fill:none;stroke:#000000;stroke-width:5;stroke-linecap:round;stroke-linejoin:round;stroke-miterlimit:4;stroke-opacity:1;stroke-dasharray:none"
       d="m 389.41265,518.76792 c 18.39632,35.02917 3.98569,56.42361 -6.31957,71.98464 -33.74867,50.96076 -36.83957,143.61535 4.39246,190.94991"
       id="path3972"
       inkscape:connector-curvature="0"
       sodipodi:nodetypes="csc" />
    <path
       style="fill:none;stroke:#000000;stroke-width:5;stroke-linecap:round;stroke-linejoin:round;stroke-miterlimit:4;stroke-opacity:1;stroke-dasharray:none"
       d="m 300.33704,831.21942 c -32.69546,-36.61498 -41.19097,-76.9988 -8.20824,-110.45297 19.25689,-19.53214 50.60539,-23.92498 69.86704,10.65257"
       id="path3974"
       inkscape:connector-curvature="0"
       sodipodi:nodetypes="csc" />
    <path
       style="fill:none;stroke:#000000;stroke-width:5;stroke-linecap:round;stroke-linejoin:round;stroke-miterlimit:4;stroke-opacity:1;stroke-dasharray:none"
       d="m 323.90847,825.14799 c -45.86122,12.91121 -58.52313,36.06229 -50.82199,51.5713 24.06434,48.46221 91.45013,24.42795 95.1077,15.57156"
       id="path3976"
       inkscape:connector-curvature="0"
       sodipodi:nodetypes="csc" />
    <path
       style="fill:none;stroke:#000000;stroke-width:5;stroke-linecap:round;stroke-linejoin:round;stroke-miterlimit:4;stroke-opacity:1;stroke-dasharray:none"
       d="m 388.68465,687.90632 c 4.53336,107.81056 -10.61565,144.86929 -22.5721,237.81636 -0.95249,7.40444 11.60531,17.72614 35.81555,20.24803 17.4459,1.81728 56.0549,0.82303 56.3422,-15.24891 1.2791,-71.54671 -31.1272,-233.24756 -29.6846,-246.35101"
       id="path3978"
       inkscape:connector-curvature="0"
       sodipodi:nodetypes="csssc" />
    <path
       style="fill:none;stroke:#000000;stroke-width:5;stroke-linecap:round;stroke-linejoin:round;stroke-miterlimit:4;stroke-opacity:1;stroke-dasharray:none"
       d="m 504.9574,677.51833 c 11.2538,107.31738 31.6504,141.7676 57.0475,231.9735 2.0232,7.18607 -8.8933,19.23042 -32.476,25.25958 -16.9937,4.34462 -55.3342,8.99728 -57.9647,-6.86054 -11.71,-70.59351 -1.2003,-238.48433 -6.5965,-248.04532"
       id="path3978-7"
       inkscape:connector-curvature="0"
       sodipodi:nodetypes="csssc" />
    <path
       style="fill:none;stroke:#000000;stroke-width:5;stroke-linecap:round;stroke-linejoin:round;stroke-miterlimit:4;stroke-opacity:1;stroke-dasharray:none"
       d="m 499.09142,514.06469 c -9.59119,5.85356 -9.03889,48.4724 3.50004,63.32926 50.02146,59.26837 43.31027,165.9453 18.4818,194.41839"
       id="path4016"
       inkscape:connector-curvature="0"
       sodipodi:nodetypes="csc" />
    <path
       style="fill:none;stroke:#000000;stroke-width:5;stroke-linecap:round;stroke-linejoin:round;stroke-miterlimit:4;stroke-opacity:1;stroke-dasharray:none"
       d="m 596.28597,821.78486 c 28.1167,-11.54382 74.4112,9.23884 71.8165,41.27581 -4.0548,50.06507 -95.53106,53.60165 -107.88796,28.36706"
       id="path4018"
       inkscape:connector-curvature="0"
       sodipodi:nodetypes="csc" />
    <path
       style="fill:none;stroke:#000000;stroke-width:5;stroke-linecap:round;stroke-linejoin:round;stroke-miterlimit:4;stroke-opacity:1;stroke-dasharray:none"
       d="m 535.79036,737.21996 c 30.40106,-33.76578 48.83921,-36.4183 68.5917,-28.90597 26.81426,10.19808 45.84373,52.88978 13.46015,108.50152"
       id="path4020"
       inkscape:connector-curvature="0"
       sodipodi:nodetypes="csc" />
    <path
       style="fill:none;stroke:#000000;stroke-width:5;stroke-linecap:round;stroke-linejoin:round;stroke-miterlimit:4;stroke-opacity:1;stroke-dasharray:none"
       d="M 358.05061,707.68598 C 280.00593,552.43217 161.58197,639.35137 145.02836,782.56068 128.58029,924.85693 74.927305,973.03404 50.337045,994.67655 c 44.67905,22.86965 110.633815,2.5257 132.554515,-12.55015 57.5069,-39.5501 74.72495,-94.31343 88.87406,-105.66414"
       id="path4022"
       inkscape:connector-curvature="0"
       sodipodi:nodetypes="cscsc" />
    <path
       style="fill:none;stroke:#000000;stroke-width:5;stroke-linecap:round;stroke-linejoin:round;stroke-miterlimit:4;stroke-opacity:1;stroke-dasharray:none"
       d="m 455.41075,866.82279 c 7.41398,2.877 10.97651,-1.02488 10.88144,-0.73967"
       id="path4026"
       inkscape:connector-curvature="0"
       sodipodi:nodetypes="cc" />
  </g>
</svg>
